<svg xmlns="http://www.w3.org/2000/svg" viewBox="0 0 1280 720" width="1280" height="720">
    <rect width="1280" height="720" fill="#F7F9FC" />
    <rect x="0" y="0" width="1280" height="4" fill="#1B6B3A" />

    
    <text x="640" y="54" text-anchor="middle" font-family="Microsoft YaHei, PingFang SC, sans-serif" font-size="32" font-weight="bold" fill="#1B6B3A">图表公式规范</text>
    <text x="640" y="80" text-anchor="middle" font-family="Microsoft YaHei, PingFang SC, sans-serif" font-size="16" fill="#718096">图（Figure）· 表（Table）· 公式（Formula）编号与格式</text>

    
    <path fill="#FFFFFF" stroke="#E2E8F0" stroke-width="1.5" d="M70,105 H410 A10,10 0 0 1 420,115 V515 A10,10 0 0 1 410,525 H70 A10,10 0 0 1 60,515 V115 A10,10 0 0 1 70,105 Z" />
    <path fill="#1B6B3A" d="M65,105 H415 A5,4 0 0 1 420,109 V109 A5,4 0 0 1 415,113 H65 A5,4 0 0 1 60,109 V109 A5,4 0 0 1 65,105 Z" />
    <text x="240" y="143" text-anchor="middle" font-family="Microsoft YaHei, PingFang SC, sans-serif" font-size="22" font-weight="bold" fill="#1B6B3A">图（Figure）</text>

    
    <path fill="#F0F4F8" stroke="#CBD5E0" stroke-width="1" d="M106,160 H374 A6,6 0 0 1 380,166 V274 A6,6 0 0 1 374,280 H106 A6,6 0 0 1 100,274 V166 A6,6 0 0 1 106,160 Z" />
    <path fill="#E2ECF5" d="M134,175 H346 A4,4 0 0 1 350,179 V251 A4,4 0 0 1 346,255 H134 A4,4 0 0 1 130,251 V179 A4,4 0 0 1 134,175 Z" />
    <text x="240" y="220" text-anchor="middle" font-family="Microsoft YaHei, PingFang SC, sans-serif" font-size="14" fill="#718096">图片内容区域</text>
    <text x="240" y="292" text-anchor="middle" font-family="Microsoft YaHei, PingFang SC, sans-serif" font-size="13" fill="#2D3748">图 2.1  研究框架示意图</text>
    <rect x="100" y="302" width="280" height="2" fill="#E2E8F0" />

    <text x="90" y="330" font-family="Microsoft YaHei, PingFang SC, sans-serif" font-size="15" font-weight="bold" fill="#2D3748">编号规则</text>
    <text x="90" y="354" font-family="Microsoft YaHei, PingFang SC, sans-serif" font-size="14" fill="#4A5568">· 按章节编号：图 2.1、图 3.5</text>
    <text x="90" y="376" font-family="Microsoft YaHei, PingFang SC, sans-serif" font-size="14" fill="#4A5568">· 附录中编号：图 A.1</text>

    <text x="90" y="410" font-family="Microsoft YaHei, PingFang SC, sans-serif" font-size="15" font-weight="bold" fill="#2D3748">图题位置</text>
    <text x="90" y="434" font-family="Microsoft YaHei, PingFang SC, sans-serif" font-size="14" fill="#E53E3E">· 置于图的下方（居中）</text>
    <text x="90" y="456" font-family="Microsoft YaHei, PingFang SC, sans-serif" font-size="14" fill="#4A5568">· 编号 + 题名连排</text>

    <text x="90" y="490" font-family="Microsoft YaHei, PingFang SC, sans-serif" font-size="15" font-weight="bold" fill="#2D3748">随文排列</text>
    <text x="90" y="514" font-family="Microsoft YaHei, PingFang SC, sans-serif" font-size="14" fill="#4A5568">· 图紧随引用文字</text>

    
    <path fill="#FFFFFF" stroke="#E2E8F0" stroke-width="1.5" d="M470,105 H810 A10,10 0 0 1 820,115 V515 A10,10 0 0 1 810,525 H470 A10,10 0 0 1 460,515 V115 A10,10 0 0 1 470,105 Z" />
    <path fill="#2E8A50" d="M465,105 H815 A5,4 0 0 1 820,109 V109 A5,4 0 0 1 815,113 H465 A5,4 0 0 1 460,109 V109 A5,4 0 0 1 465,105 Z" />
    <text x="640" y="143" text-anchor="middle" font-family="Microsoft YaHei, PingFang SC, sans-serif" font-size="22" font-weight="bold" fill="#2E8A50">表（Table）</text>

    
    <text x="640" y="185" text-anchor="middle" font-family="Microsoft YaHei, PingFang SC, sans-serif" font-size="13" fill="#2D3748">表 2.1  样本统计描述</text>
    <rect x="490" y="196" width="300" height="2" fill="#2D3748" />
    <rect x="490" y="200" width="300" height="1" fill="#2D3748" />
    <text x="530" y="222" font-family="Microsoft YaHei, PingFang SC, sans-serif" font-size="13" fill="#4A5568">变量</text>
    <text x="680" y="222" font-family="Microsoft YaHei, PingFang SC, sans-serif" font-size="13" fill="#4A5568">均值</text>
    <text x="730" y="222" font-family="Microsoft YaHei, PingFang SC, sans-serif" font-size="13" fill="#4A5568">标准差</text>
    <rect x="490" y="230" width="300" height="1" fill="#4A5568" />
    <text x="530" y="250" font-family="Microsoft YaHei, PingFang SC, sans-serif" font-size="13" fill="#718096">年龄</text>
    <text x="680" y="250" font-family="Microsoft YaHei, PingFang SC, sans-serif" font-size="13" fill="#718096">26.3</text>
    <text x="730" y="250" font-family="Microsoft YaHei, PingFang SC, sans-serif" font-size="13" fill="#718096">3.5</text>
    <text x="530" y="270" font-family="Microsoft YaHei, PingFang SC, sans-serif" font-size="13" fill="#718096">成绩</text>
    <text x="680" y="270" font-family="Microsoft YaHei, PingFang SC, sans-serif" font-size="13" fill="#718096">82.7</text>
    <text x="730" y="270" font-family="Microsoft YaHei, PingFang SC, sans-serif" font-size="13" fill="#718096">11.2</text>
    <rect x="490" y="278" width="300" height="2" fill="#2D3748" />
    <text x="640" y="300" text-anchor="middle" font-family="Microsoft YaHei, PingFang SC, sans-serif" font-size="12" fill="#A0AEC0">三线表示意</text>

    <text x="490" y="328" font-family="Microsoft YaHei, PingFang SC, sans-serif" font-size="15" font-weight="bold" fill="#2D3748">编号规则</text>
    <text x="490" y="352" font-family="Microsoft YaHei, PingFang SC, sans-serif" font-size="14" fill="#4A5568">· 按章节编号：表 2.1、表 4.3</text>
    <text x="490" y="374" font-family="Microsoft YaHei, PingFang SC, sans-serif" font-size="14" fill="#4A5568">· 附录中编号：表 A.1</text>

    <text x="490" y="408" font-family="Microsoft YaHei, PingFang SC, sans-serif" font-size="15" font-weight="bold" fill="#2D3748">表题位置</text>
    <text x="490" y="432" font-family="Microsoft YaHei, PingFang SC, sans-serif" font-size="14" fill="#E53E3E">· 置于表的上方（居中）</text>
    <text x="490" y="454" font-family="Microsoft YaHei, PingFang SC, sans-serif" font-size="14" fill="#4A5568">· 续表需重复表头及标注"续表"</text>

    <text x="490" y="488" font-family="Microsoft YaHei, PingFang SC, sans-serif" font-size="15" font-weight="bold" fill="#2D3748">表格样式</text>
    <text x="490" y="512" font-family="Microsoft YaHei, PingFang SC, sans-serif" font-size="14" fill="#4A5568">· 推荐国际通用三线表</text>

    
    <path fill="#FFFFFF" stroke="#E2E8F0" stroke-width="1.5" d="M870,105 H1210 A10,10 0 0 1 1220,115 V515 A10,10 0 0 1 1210,525 H870 A10,10 0 0 1 860,515 V115 A10,10 0 0 1 870,105 Z" />
    <path fill="#D4A017" d="M865,105 H1215 A5,4 0 0 1 1220,109 V109 A5,4 0 0 1 1215,113 H865 A5,4 0 0 1 860,109 V109 A5,4 0 0 1 865,105 Z" />
    <text x="1040" y="143" text-anchor="middle" font-family="Microsoft YaHei, PingFang SC, sans-serif" font-size="22" font-weight="bold" fill="#D4A017">公式（Formula）</text>

    
    <path fill="#FEF9E8" stroke="#FED7A0" stroke-width="1" d="M896,160 H1184 A6,6 0 0 1 1190,166 V224 A6,6 0 0 1 1184,230 H896 A6,6 0 0 1 890,224 V166 A6,6 0 0 1 896,160 Z" />
    <text x="1000" y="200" text-anchor="middle" font-family="Times New Roman, serif" font-size="20" font-style="italic" fill="#2D3748">E = mc²</text>
    <text x="1155" y="200" text-anchor="middle" font-family="Arial, sans-serif" font-size="14" fill="#D4A017">(1.3)</text>
    <rect x="890" y="238" width="300" height="2" fill="#E2E8F0" />

    <text x="890" y="268" font-family="Microsoft YaHei, PingFang SC, sans-serif" font-size="15" font-weight="bold" fill="#2D3748">排列规则</text>
    <text x="890" y="292" font-family="Microsoft YaHei, PingFang SC, sans-serif" font-size="14" fill="#4A5568">· 另起一行居中横排</text>
    <text x="890" y="314" font-family="Microsoft YaHei, PingFang SC, sans-serif" font-size="14" fill="#4A5568">· 不占正文行间距</text>

    <text x="890" y="348" font-family="Microsoft YaHei, PingFang SC, sans-serif" font-size="15" font-weight="bold" fill="#2D3748">编号规则</text>
    <text x="890" y="372" font-family="Microsoft YaHei, PingFang SC, sans-serif" font-size="14" fill="#4A5568">· 分章节编号：公式 1.3、公式 5.7</text>
    <text x="890" y="394" font-family="Microsoft YaHei, PingFang SC, sans-serif" font-size="14" fill="#4A5568">· 编号在行末右对齐</text>
    <text x="890" y="416" font-family="Microsoft YaHei, PingFang SC, sans-serif" font-size="14" fill="#4A5568">· 序号标注于最右侧圆括号内</text>

    <text x="890" y="450" font-family="Microsoft YaHei, PingFang SC, sans-serif" font-size="15" font-weight="bold" fill="#2D3748">转行规则</text>
    <text x="890" y="474" font-family="Microsoft YaHei, PingFang SC, sans-serif" font-size="14" fill="#4A5568">· 在运算符（+ - × ÷）处换行</text>
    <text x="890" y="496" font-family="Microsoft YaHei, PingFang SC, sans-serif" font-size="14" fill="#4A5568">· 运算符排于下行行首</text>

    
    <path fill="#EBF5EF" d="M68,550 H1212 A8,8 0 0 1 1220,558 V602 A8,8 0 0 1 1212,610 H68 A8,8 0 0 1 60,602 V558 A8,8 0 0 1 68,550 Z" />
    <text x="90" y="575" font-family="Microsoft YaHei, PingFang SC, sans-serif" font-size="15" font-weight="bold" fill="#1B6B3A">总则：</text>
    <text x="185" y="575" font-family="Microsoft YaHei, PingFang SC, sans-serif" font-size="15" fill="#2D3748">图 · 表 · 公式均须在正文中首次出现时进行引用说明</text>
    <text x="90" y="598" font-family="Microsoft YaHei, PingFang SC, sans-serif" font-size="14" fill="#4A5568">图题/表题一般用中英文对照，字号同正文或小于正文一级</text>

    
    <rect x="60" y="650" width="1160" height="1" fill="#E2E8F0" />
    <text x="100" y="670" font-family="Microsoft YaHei, PingFang SC, sans-serif" font-size="12" fill="#A0AEC0">华中师范大学研究生学位论文撰写格式标准</text>
    <text x="640" y="670" text-anchor="middle" font-family="Arial, sans-serif" font-size="12" fill="#A0AEC0">7 / 11</text>
</svg>